G04 (created by PCBNEW (2013-jul-07)-stable) date Thu 27 Nov 2014 12:46:05 AM EST*
%MOIN*%
G04 Gerber Fmt 3.4, Leading zero omitted, Abs format*
%FSLAX34Y34*%
G01*
G70*
G90*
G04 APERTURE LIST*
%ADD10C,0.00590551*%
%ADD11C,0.00393701*%
%ADD12R,0.05X0.45*%
%ADD13R,0.05X0.425*%
%ADD14R,0.06X0.1*%
%ADD15C,0.025*%
%ADD16C,0.01*%
G04 APERTURE END LIST*
G54D10*
G54D11*
X24803Y-22244D02*
X24803Y-22047D01*
X20078Y-22244D02*
X24803Y-22244D01*
X20078Y-22047D02*
X20078Y-22244D01*
X20078Y-20472D02*
X20078Y-22047D01*
X24803Y-20472D02*
X24803Y-22047D01*
X20078Y-20472D02*
X20078Y-15748D01*
X24803Y-15748D02*
X24803Y-20472D01*
X20078Y-15748D02*
X24803Y-15748D01*
G54D12*
X23940Y-18333D03*
G54D13*
X22865Y-18458D03*
X22015Y-18458D03*
G54D12*
X20940Y-18333D03*
G54D14*
X22806Y-21549D03*
X21806Y-21549D03*
X20806Y-21549D03*
G54D15*
X24076Y-21617D03*
X23347Y-17651D03*
X24353Y-17712D03*
X21517Y-17943D03*
X21424Y-19110D03*
X23531Y-21148D03*
X23945Y-20783D03*
X20525Y-19091D03*
X21893Y-20807D03*
X22820Y-20811D03*
X22745Y-16444D03*
X22192Y-16417D03*
X20410Y-20136D03*
X24467Y-18117D03*
G54D16*
X23806Y-21034D02*
X24076Y-21617D01*
X23670Y-20897D02*
X23806Y-21034D01*
X23490Y-20666D02*
X23670Y-20897D01*
X23347Y-17651D02*
X23490Y-20666D01*
X23106Y-21148D02*
X23531Y-21148D01*
X23056Y-21148D02*
X23106Y-21148D01*
X22806Y-21549D02*
X23056Y-21148D01*
X21565Y-16300D02*
X21517Y-17943D01*
X21582Y-16257D02*
X21565Y-16300D01*
X21689Y-16149D02*
X21582Y-16257D01*
X21957Y-16149D02*
X21689Y-16149D01*
X22291Y-16149D02*
X21957Y-16149D01*
X22546Y-16149D02*
X22291Y-16149D01*
X22924Y-16149D02*
X22546Y-16149D01*
X23690Y-16149D02*
X22924Y-16149D01*
X23740Y-16149D02*
X23690Y-16149D01*
X23940Y-18333D02*
X23740Y-16149D01*
X21517Y-17943D02*
X21424Y-19110D01*
X24190Y-17712D02*
X24353Y-17712D01*
X24140Y-17712D02*
X24190Y-17712D01*
X23940Y-18333D02*
X24140Y-17712D01*
X23945Y-20533D02*
X23940Y-18333D01*
X23945Y-20583D02*
X23945Y-20533D01*
X23945Y-20783D02*
X23945Y-20583D01*
X20690Y-19091D02*
X20525Y-19091D01*
X20740Y-19091D02*
X20690Y-19091D01*
X20940Y-18333D02*
X20740Y-19091D01*
X20873Y-21099D02*
X20806Y-21549D01*
X20873Y-21049D02*
X20873Y-21099D01*
X20873Y-20583D02*
X20873Y-21049D01*
X20873Y-20533D02*
X20873Y-20583D01*
X20940Y-18333D02*
X20873Y-20533D01*
X21893Y-20807D02*
X22056Y-21028D01*
X22423Y-20849D02*
X22820Y-20811D01*
X22085Y-20999D02*
X22423Y-20849D01*
X22056Y-21028D02*
X22085Y-20999D01*
X22056Y-21049D02*
X22056Y-21028D01*
X22056Y-21099D02*
X22056Y-21049D01*
X21806Y-21549D02*
X22056Y-21099D01*
X22865Y-16583D02*
X22745Y-16444D01*
X22865Y-18458D02*
X22865Y-16583D01*
X22192Y-16417D02*
X22015Y-18458D01*
X24635Y-17828D02*
X24467Y-18117D01*
X24635Y-17595D02*
X24635Y-17828D01*
X24390Y-16050D02*
X24635Y-17595D01*
X24358Y-16014D02*
X24390Y-16050D01*
X24260Y-15916D02*
X24358Y-16014D01*
X20760Y-15916D02*
X24260Y-15916D01*
X20621Y-15916D02*
X20760Y-15916D01*
X20523Y-16014D02*
X20621Y-15916D01*
X20490Y-16050D02*
X20523Y-16014D01*
X20246Y-18975D02*
X20490Y-16050D01*
X20246Y-19206D02*
X20246Y-18975D01*
X20410Y-20136D02*
X20246Y-19206D01*
M02*
