G04 (created by PCBNEW (2013-jul-07)-stable) date Thu 23 Oct 2014 12:14:03 PM EDT*
%MOIN*%
G04 Gerber Fmt 3.4, Leading zero omitted, Abs format*
%FSLAX34Y34*%
G01*
G70*
G90*
G04 APERTURE LIST*
%ADD10C,0.00590551*%
%ADD11C,0.00393701*%
%ADD12R,0.047X0.055*%
%ADD13R,0.035X0.055*%
%ADD14R,0.055X0.035*%
%ADD15R,0.01X0.03*%
%ADD16R,0.03X0.01*%
%ADD17R,0.1181X0.1181*%
%ADD18R,0.0393701X0.015748*%
%ADD19R,0.023622X0.0275591*%
%ADD20R,0.06X0.1*%
%ADD21C,0.025*%
%ADD22C,0.01*%
G04 APERTURE END LIST*
G54D10*
G54D11*
X24803Y-22244D02*
X24803Y-22047D01*
X20078Y-22244D02*
X24803Y-22244D01*
X20078Y-22047D02*
X20078Y-22244D01*
X20078Y-20472D02*
X20078Y-22047D01*
X24803Y-20472D02*
X24803Y-22047D01*
X20078Y-20472D02*
X20078Y-15748D01*
X24803Y-15748D02*
X24803Y-20472D01*
X20078Y-15748D02*
X24803Y-15748D01*
G54D12*
X21339Y-16422D03*
X20669Y-16422D03*
X20669Y-17322D03*
X21339Y-17322D03*
G54D13*
X24420Y-21743D03*
X23670Y-21743D03*
G54D14*
X24401Y-20345D03*
X24401Y-21095D03*
G54D15*
X22299Y-18052D03*
X22496Y-18052D03*
X22693Y-18052D03*
X22102Y-18052D03*
G54D16*
X21807Y-18347D03*
X21807Y-18544D03*
X21807Y-18741D03*
X21807Y-18938D03*
X21807Y-19134D03*
X21807Y-19331D03*
X21807Y-19528D03*
X21807Y-19725D03*
G54D15*
X23480Y-20020D03*
X22102Y-20020D03*
X22299Y-20020D03*
X22496Y-20020D03*
X22693Y-20020D03*
X22889Y-20020D03*
X23086Y-20020D03*
X23283Y-20020D03*
G54D16*
X23775Y-19725D03*
X23775Y-19528D03*
X23775Y-19331D03*
X23775Y-19134D03*
X23775Y-18938D03*
X23775Y-18741D03*
X23775Y-18544D03*
X23775Y-18347D03*
G54D15*
X23480Y-18052D03*
X23283Y-18052D03*
X23086Y-18052D03*
X22889Y-18052D03*
G54D17*
X22791Y-19036D03*
G54D18*
X24330Y-17401D03*
X24330Y-17086D03*
X24330Y-16771D03*
X24330Y-16456D03*
X23700Y-16456D03*
X23700Y-16771D03*
X23700Y-17086D03*
X23700Y-17401D03*
G54D19*
X20760Y-18098D03*
X20760Y-18728D03*
X20367Y-18098D03*
X20367Y-18728D03*
X22409Y-16777D03*
X22409Y-17407D03*
X22015Y-16777D03*
X22015Y-17407D03*
G54D20*
X22806Y-21549D03*
X21806Y-21549D03*
X20806Y-21549D03*
G54D21*
X24076Y-21617D03*
X23347Y-17651D03*
X24353Y-17712D03*
X21517Y-17943D03*
X21424Y-19110D03*
X23531Y-21148D03*
X23945Y-20783D03*
X20525Y-19091D03*
X21893Y-20807D03*
X22820Y-20811D03*
X22745Y-16444D03*
X22192Y-16417D03*
X20410Y-20136D03*
X24467Y-18117D03*
G54D22*
X24295Y-21617D02*
X24420Y-21743D01*
X24245Y-21617D02*
X24295Y-21617D01*
X24076Y-21617D02*
X24245Y-21617D01*
X23178Y-17745D02*
X23347Y-17651D01*
X23086Y-17837D02*
X23178Y-17745D01*
X23086Y-17902D02*
X23086Y-17837D01*
X23086Y-17952D02*
X23086Y-17902D01*
X23086Y-18052D02*
X23086Y-17952D01*
X23700Y-16742D02*
X23700Y-16771D01*
X23700Y-16692D02*
X23700Y-16742D01*
X23700Y-16535D02*
X23700Y-16692D01*
X23700Y-16485D02*
X23700Y-16535D01*
X23700Y-16456D02*
X23700Y-16485D01*
X23322Y-17555D02*
X23347Y-17651D01*
X23303Y-17455D02*
X23322Y-17555D01*
X23303Y-17289D02*
X23303Y-17455D01*
X23303Y-16925D02*
X23303Y-17289D01*
X23421Y-16807D02*
X23303Y-16925D01*
X23483Y-16800D02*
X23421Y-16807D01*
X23503Y-16800D02*
X23483Y-16800D01*
X23553Y-16800D02*
X23503Y-16800D01*
X23700Y-16771D02*
X23553Y-16800D01*
X23677Y-21023D02*
X23945Y-20783D01*
X23531Y-21148D02*
X23677Y-21023D01*
X22102Y-17952D02*
X22102Y-18052D01*
X22052Y-17952D02*
X22102Y-17952D01*
X22032Y-17952D02*
X22052Y-17952D01*
X21933Y-17943D02*
X22032Y-17952D01*
X21517Y-17943D02*
X21933Y-17943D01*
X21707Y-18938D02*
X21807Y-18938D01*
X21657Y-18938D02*
X21707Y-18938D01*
X21593Y-18938D02*
X21657Y-18938D01*
X21501Y-19030D02*
X21593Y-18938D01*
X21424Y-19110D02*
X21501Y-19030D01*
X23847Y-17430D02*
X23700Y-17401D01*
X23847Y-17480D02*
X23847Y-17430D01*
X23847Y-17501D02*
X23847Y-17480D01*
X23876Y-17530D02*
X23847Y-17501D01*
X24050Y-17680D02*
X23876Y-17530D01*
X24353Y-17712D02*
X24050Y-17680D01*
X23700Y-17372D02*
X23700Y-17401D01*
X23700Y-17322D02*
X23700Y-17372D01*
X23700Y-17165D02*
X23700Y-17322D01*
X23700Y-17115D02*
X23700Y-17165D01*
X23700Y-17086D02*
X23700Y-17115D01*
X22249Y-18052D02*
X22299Y-18052D01*
X22152Y-18052D02*
X22249Y-18052D01*
X22102Y-18052D02*
X22152Y-18052D01*
X21807Y-19331D02*
X21547Y-19350D01*
X21547Y-19350D02*
X21464Y-19381D01*
X21464Y-19381D02*
X21161Y-19362D01*
X21161Y-19362D02*
X20525Y-19091D01*
X21807Y-19331D02*
X22125Y-19330D01*
X22125Y-19330D02*
X22791Y-19036D01*
X21707Y-18741D02*
X21807Y-18741D01*
X21657Y-18741D02*
X21707Y-18741D01*
X20878Y-18741D02*
X21657Y-18741D01*
X20828Y-18741D02*
X20878Y-18741D01*
X20760Y-18728D02*
X20828Y-18741D01*
X21524Y-16647D02*
X21339Y-16422D01*
X21574Y-16647D02*
X21524Y-16647D01*
X21595Y-16647D02*
X21574Y-16647D01*
X21624Y-16677D02*
X21595Y-16647D01*
X21735Y-16980D02*
X21624Y-16677D01*
X21735Y-16982D02*
X21735Y-16980D01*
X21830Y-17076D02*
X21735Y-16982D01*
X21873Y-17092D02*
X21830Y-17076D01*
X22600Y-17092D02*
X21873Y-17092D01*
X22713Y-17094D02*
X22600Y-17092D01*
X22745Y-17110D02*
X22713Y-17094D01*
X22889Y-17952D02*
X22889Y-18052D01*
X22889Y-17902D02*
X22889Y-17952D01*
X22889Y-17756D02*
X22889Y-17902D01*
X22906Y-17723D02*
X22889Y-17756D01*
X22906Y-17702D02*
X22906Y-17723D01*
X22906Y-17387D02*
X22906Y-17702D01*
X22745Y-17110D02*
X22906Y-17387D01*
X22889Y-18496D02*
X22791Y-19036D01*
X22889Y-18446D02*
X22889Y-18496D01*
X22889Y-18202D02*
X22889Y-18446D01*
X22889Y-18152D02*
X22889Y-18202D01*
X22889Y-18052D02*
X22889Y-18152D01*
X23303Y-16295D02*
X22745Y-17110D01*
X23421Y-16177D02*
X23303Y-16295D01*
X23586Y-16177D02*
X23421Y-16177D01*
X23980Y-16177D02*
X23586Y-16177D01*
X24154Y-16327D02*
X23980Y-16177D01*
X24183Y-16357D02*
X24154Y-16327D01*
X24183Y-16377D02*
X24183Y-16357D01*
X24183Y-16427D02*
X24183Y-16377D01*
X24330Y-16456D02*
X24183Y-16427D01*
X21907Y-18741D02*
X21807Y-18741D01*
X21957Y-18741D02*
X21907Y-18741D01*
X22201Y-18741D02*
X21957Y-18741D01*
X22251Y-18741D02*
X22201Y-18741D01*
X22791Y-19036D02*
X22251Y-18741D01*
X21154Y-16647D02*
X21339Y-16422D01*
X21154Y-16697D02*
X21154Y-16647D01*
X21154Y-16718D02*
X21154Y-16697D01*
X20854Y-17027D02*
X21154Y-16718D01*
X20854Y-17047D02*
X20854Y-17027D01*
X20854Y-17097D02*
X20854Y-17047D01*
X20669Y-17322D02*
X20854Y-17097D01*
X24330Y-16742D02*
X24330Y-16771D01*
X24330Y-16692D02*
X24330Y-16742D01*
X24330Y-16535D02*
X24330Y-16692D01*
X24330Y-16485D02*
X24330Y-16535D01*
X24330Y-16456D02*
X24330Y-16485D01*
X23086Y-19577D02*
X22791Y-19036D01*
X23086Y-19627D02*
X23086Y-19577D01*
X23086Y-19870D02*
X23086Y-19627D01*
X23086Y-19920D02*
X23086Y-19870D01*
X23086Y-20020D02*
X23086Y-19920D01*
X24330Y-17057D02*
X24330Y-17086D01*
X24330Y-17007D02*
X24330Y-17057D01*
X24330Y-16850D02*
X24330Y-17007D01*
X24330Y-16800D02*
X24330Y-16850D01*
X24330Y-16771D02*
X24330Y-16800D01*
X24330Y-17372D02*
X24330Y-17401D01*
X24330Y-17322D02*
X24330Y-17372D01*
X24330Y-17165D02*
X24330Y-17322D01*
X24330Y-17115D02*
X24330Y-17165D01*
X24330Y-17086D02*
X24330Y-17115D01*
X20435Y-18728D02*
X20367Y-18728D01*
X20485Y-18728D02*
X20435Y-18728D01*
X20642Y-18728D02*
X20485Y-18728D01*
X20692Y-18728D02*
X20642Y-18728D01*
X20760Y-18728D02*
X20692Y-18728D01*
X20692Y-18816D02*
X20760Y-18728D01*
X20692Y-18866D02*
X20692Y-18816D01*
X20692Y-18887D02*
X20692Y-18866D01*
X20525Y-19091D02*
X20692Y-18887D01*
X24176Y-20220D02*
X24401Y-20345D01*
X24176Y-20170D02*
X24176Y-20220D01*
X24125Y-18698D02*
X24176Y-20170D01*
X24082Y-18636D02*
X24125Y-18698D01*
X23990Y-18544D02*
X24082Y-18636D01*
X23925Y-18544D02*
X23990Y-18544D01*
X23875Y-18544D02*
X23925Y-18544D01*
X23775Y-18544D02*
X23875Y-18544D01*
X22102Y-20020D02*
X21893Y-20759D01*
X21893Y-20759D02*
X21893Y-20807D01*
X23480Y-20120D02*
X23480Y-20020D01*
X23480Y-20170D02*
X23480Y-20120D01*
X23480Y-20354D02*
X23480Y-20170D01*
X23220Y-20614D02*
X23480Y-20354D01*
X22820Y-20811D02*
X23220Y-20614D01*
X24176Y-21220D02*
X24401Y-21095D01*
X24126Y-21220D02*
X24176Y-21220D01*
X24106Y-21220D02*
X24126Y-21220D01*
X23944Y-21299D02*
X24106Y-21220D01*
X23825Y-21418D02*
X23944Y-21299D01*
X23795Y-21448D02*
X23825Y-21418D01*
X23795Y-21468D02*
X23795Y-21448D01*
X23795Y-21518D02*
X23795Y-21468D01*
X23670Y-21743D02*
X23795Y-21518D01*
X22744Y-16322D02*
X22745Y-16444D01*
X22553Y-16132D02*
X22744Y-16322D01*
X22113Y-16130D02*
X22553Y-16132D01*
X21927Y-16214D02*
X22113Y-16130D01*
X21891Y-16556D02*
X21927Y-16214D01*
X22015Y-16777D02*
X21891Y-16556D01*
X22419Y-16639D02*
X22192Y-16417D01*
X22419Y-16689D02*
X22419Y-16639D01*
X22409Y-16777D02*
X22419Y-16689D01*
X22693Y-17952D02*
X22693Y-18052D01*
X22693Y-17902D02*
X22693Y-17952D01*
X22693Y-17739D02*
X22693Y-17902D01*
X22577Y-17524D02*
X22693Y-17739D01*
X22547Y-17495D02*
X22577Y-17524D01*
X22527Y-17495D02*
X22547Y-17495D01*
X22477Y-17495D02*
X22527Y-17495D01*
X22409Y-17407D02*
X22477Y-17495D01*
X21806Y-21549D02*
X21610Y-20834D01*
X21610Y-20834D02*
X21614Y-19897D01*
X21614Y-19897D02*
X21807Y-19725D01*
X23283Y-20120D02*
X23283Y-20020D01*
X23283Y-20170D02*
X23283Y-20120D01*
X23283Y-20231D02*
X23283Y-20170D01*
X23281Y-20251D02*
X23283Y-20231D01*
X23167Y-20365D02*
X23281Y-20251D01*
X22685Y-20486D02*
X23167Y-20365D01*
X22085Y-20999D02*
X22685Y-20486D01*
X22056Y-21028D02*
X22085Y-20999D01*
X22056Y-21049D02*
X22056Y-21028D01*
X22056Y-21099D02*
X22056Y-21049D01*
X21806Y-21549D02*
X22056Y-21099D01*
X23875Y-18347D02*
X23775Y-18347D01*
X23925Y-18347D02*
X23875Y-18347D01*
X23946Y-18347D02*
X23925Y-18347D01*
X24467Y-18117D02*
X23946Y-18347D01*
X20556Y-21049D02*
X20410Y-20136D01*
X20556Y-21099D02*
X20556Y-21049D01*
X20806Y-21549D02*
X20556Y-21099D01*
X23730Y-19725D02*
X23775Y-19725D01*
X23730Y-19775D02*
X23730Y-19725D01*
X23730Y-20415D02*
X23730Y-19775D01*
X23700Y-20488D02*
X23730Y-20415D01*
X23156Y-21069D02*
X23700Y-20488D01*
X23127Y-21099D02*
X23156Y-21069D01*
X23106Y-21099D02*
X23127Y-21099D01*
X23056Y-21099D02*
X23106Y-21099D01*
X22806Y-21549D02*
X23056Y-21099D01*
X20299Y-18010D02*
X20367Y-18098D01*
X20299Y-17960D02*
X20299Y-18010D01*
X20299Y-17940D02*
X20299Y-17960D01*
X20247Y-17675D02*
X20299Y-17940D01*
X20247Y-17520D02*
X20247Y-17675D01*
X20247Y-16970D02*
X20247Y-17520D01*
X20384Y-16677D02*
X20247Y-16970D01*
X20413Y-16647D02*
X20384Y-16677D01*
X20434Y-16647D02*
X20413Y-16647D01*
X20484Y-16647D02*
X20434Y-16647D01*
X20669Y-16422D02*
X20484Y-16647D01*
X20435Y-18186D02*
X20367Y-18098D01*
X20435Y-18236D02*
X20435Y-18186D01*
X20435Y-18257D02*
X20435Y-18236D01*
X20465Y-18309D02*
X20435Y-18257D01*
X20569Y-18413D02*
X20465Y-18309D01*
X20952Y-18413D02*
X20569Y-18413D01*
X21065Y-18416D02*
X20952Y-18413D01*
X21266Y-18507D02*
X21065Y-18416D01*
X21295Y-18519D02*
X21266Y-18507D01*
X21555Y-18544D02*
X21295Y-18519D01*
X21657Y-18544D02*
X21555Y-18544D01*
X21707Y-18544D02*
X21657Y-18544D01*
X21807Y-18544D02*
X21707Y-18544D01*
X20828Y-18186D02*
X20760Y-18098D01*
X20878Y-18186D02*
X20828Y-18186D01*
X21120Y-18186D02*
X20878Y-18186D01*
X21382Y-18269D02*
X21120Y-18186D01*
X21637Y-18347D02*
X21382Y-18269D01*
X21657Y-18347D02*
X21637Y-18347D01*
X21707Y-18347D02*
X21657Y-18347D01*
X21807Y-18347D02*
X21707Y-18347D01*
X21154Y-17547D02*
X21339Y-17322D01*
X21154Y-17597D02*
X21154Y-17547D01*
X21154Y-17618D02*
X21154Y-17597D01*
X21125Y-17647D02*
X21154Y-17618D01*
X20858Y-17910D02*
X21125Y-17647D01*
X20828Y-17940D02*
X20858Y-17910D01*
X20828Y-17960D02*
X20828Y-17940D01*
X20828Y-18010D02*
X20828Y-17960D01*
X20760Y-18098D02*
X20828Y-18010D01*
X22496Y-17952D02*
X22496Y-18052D01*
X22496Y-17902D02*
X22496Y-17952D01*
X22496Y-17841D02*
X22496Y-17902D01*
X22410Y-17755D02*
X22496Y-17841D01*
X22373Y-17723D02*
X22410Y-17755D01*
X22226Y-17723D02*
X22373Y-17723D01*
X22216Y-17723D02*
X22226Y-17723D01*
X22112Y-17619D02*
X22216Y-17723D01*
X22083Y-17565D02*
X22112Y-17619D01*
X22083Y-17545D02*
X22083Y-17565D01*
X22083Y-17495D02*
X22083Y-17545D01*
X22015Y-17407D02*
X22083Y-17495D01*
M02*
