G04 (created by PCBNEW (2013-jul-07)-stable) date Thu 23 Oct 2014 12:14:03 PM EDT*
%MOIN*%
G04 Gerber Fmt 3.4, Leading zero omitted, Abs format*
%FSLAX34Y34*%
G01*
G70*
G90*
G04 APERTURE LIST*
%ADD10C,0.00590551*%
%ADD11C,0.00393701*%
%ADD12R,0.047X0.055*%
%ADD13R,0.035X0.055*%
%ADD14R,0.055X0.035*%
%ADD15R,0.01X0.03*%
%ADD16R,0.03X0.01*%
%ADD17R,0.1181X0.1181*%
%ADD18R,0.0393701X0.015748*%
%ADD19R,0.023622X0.0275591*%
%ADD20R,0.06X0.1*%
G04 APERTURE END LIST*
G54D10*
G54D11*
X24803Y-22244D02*
X24803Y-22047D01*
X20078Y-22244D02*
X24803Y-22244D01*
X20078Y-22047D02*
X20078Y-22244D01*
X20078Y-20472D02*
X20078Y-22047D01*
X24803Y-20472D02*
X24803Y-22047D01*
X20078Y-20472D02*
X20078Y-15748D01*
X24803Y-15748D02*
X24803Y-20472D01*
X20078Y-15748D02*
X24803Y-15748D01*
G54D12*
X21339Y-16422D03*
X20669Y-16422D03*
X20669Y-17322D03*
X21339Y-17322D03*
G54D13*
X24420Y-21743D03*
X23670Y-21743D03*
G54D14*
X24401Y-20345D03*
X24401Y-21095D03*
G54D15*
X22299Y-18052D03*
X22496Y-18052D03*
X22693Y-18052D03*
X22102Y-18052D03*
G54D16*
X21807Y-18347D03*
X21807Y-18544D03*
X21807Y-18741D03*
X21807Y-18938D03*
X21807Y-19134D03*
X21807Y-19331D03*
X21807Y-19528D03*
X21807Y-19725D03*
G54D15*
X23480Y-20020D03*
X22102Y-20020D03*
X22299Y-20020D03*
X22496Y-20020D03*
X22693Y-20020D03*
X22889Y-20020D03*
X23086Y-20020D03*
X23283Y-20020D03*
G54D16*
X23775Y-19725D03*
X23775Y-19528D03*
X23775Y-19331D03*
X23775Y-19134D03*
X23775Y-18938D03*
X23775Y-18741D03*
X23775Y-18544D03*
X23775Y-18347D03*
G54D15*
X23480Y-18052D03*
X23283Y-18052D03*
X23086Y-18052D03*
X22889Y-18052D03*
G54D17*
X22791Y-19036D03*
G54D18*
X24330Y-17401D03*
X24330Y-17086D03*
X24330Y-16771D03*
X24330Y-16456D03*
X23700Y-16456D03*
X23700Y-16771D03*
X23700Y-17086D03*
X23700Y-17401D03*
G54D19*
X20760Y-18098D03*
X20760Y-18728D03*
X20367Y-18098D03*
X20367Y-18728D03*
X22409Y-16777D03*
X22409Y-17407D03*
X22015Y-16777D03*
X22015Y-17407D03*
G54D20*
X22806Y-21549D03*
X21806Y-21549D03*
X20806Y-21549D03*
X22806Y-21549D03*
X21806Y-21549D03*
X20806Y-21549D03*
M02*
