G04 (created by PCBNEW (2013-jul-07)-stable) date Thu 27 Nov 2014 12:46:05 AM EST*
%MOIN*%
G04 Gerber Fmt 3.4, Leading zero omitted, Abs format*
%FSLAX34Y34*%
G01*
G70*
G90*
G04 APERTURE LIST*
%ADD10C,0.00590551*%
%ADD11C,0.006*%
%ADD12C,0.00393701*%
G04 APERTURE END LIST*
G54D10*
G54D11*
X22369Y-21110D02*
X22369Y-21338D01*
X22483Y-21224D02*
X22255Y-21224D01*
X22183Y-21624D02*
X22183Y-21481D01*
X22326Y-21467D01*
X22312Y-21481D01*
X22297Y-21510D01*
X22297Y-21581D01*
X22312Y-21610D01*
X22326Y-21624D01*
X22355Y-21638D01*
X22426Y-21638D01*
X22455Y-21624D01*
X22469Y-21610D01*
X22483Y-21581D01*
X22483Y-21510D01*
X22469Y-21481D01*
X22455Y-21467D01*
X22183Y-21724D02*
X22483Y-21824D01*
X22183Y-21924D01*
X21160Y-21346D02*
X21160Y-21517D01*
X21460Y-21431D02*
X21160Y-21431D01*
X21160Y-21589D02*
X21460Y-21789D01*
X21160Y-21789D02*
X21460Y-21589D01*
X20150Y-21346D02*
X20136Y-21317D01*
X20136Y-21274D01*
X20150Y-21231D01*
X20179Y-21203D01*
X20207Y-21189D01*
X20264Y-21174D01*
X20307Y-21174D01*
X20364Y-21189D01*
X20393Y-21203D01*
X20422Y-21231D01*
X20436Y-21274D01*
X20436Y-21303D01*
X20422Y-21346D01*
X20407Y-21360D01*
X20307Y-21360D01*
X20307Y-21303D01*
X20436Y-21489D02*
X20136Y-21489D01*
X20436Y-21660D01*
X20136Y-21660D01*
X20436Y-21803D02*
X20136Y-21803D01*
X20136Y-21874D01*
X20150Y-21917D01*
X20179Y-21946D01*
X20207Y-21960D01*
X20264Y-21974D01*
X20307Y-21974D01*
X20364Y-21960D01*
X20393Y-21946D01*
X20422Y-21917D01*
X20436Y-21874D01*
X20436Y-21803D01*
X20546Y-16838D02*
X20534Y-16826D01*
X20499Y-16802D01*
X20475Y-16790D01*
X20439Y-16778D01*
X20380Y-16767D01*
X20332Y-16767D01*
X20273Y-16778D01*
X20237Y-16790D01*
X20213Y-16802D01*
X20177Y-16826D01*
X20165Y-16838D01*
X20427Y-17076D02*
X20439Y-17064D01*
X20451Y-17028D01*
X20451Y-17005D01*
X20439Y-16969D01*
X20415Y-16945D01*
X20392Y-16933D01*
X20344Y-16921D01*
X20308Y-16921D01*
X20261Y-16933D01*
X20237Y-16945D01*
X20213Y-16969D01*
X20201Y-17005D01*
X20201Y-17028D01*
X20213Y-17064D01*
X20225Y-17076D01*
X20546Y-17159D02*
X20534Y-17171D01*
X20499Y-17195D01*
X20475Y-17207D01*
X20439Y-17219D01*
X20380Y-17231D01*
X20332Y-17231D01*
X20273Y-17219D01*
X20237Y-17207D01*
X20213Y-17195D01*
X20177Y-17171D01*
X20165Y-17159D01*
X20225Y-17528D02*
X20213Y-17540D01*
X20201Y-17564D01*
X20201Y-17624D01*
X20213Y-17648D01*
X20225Y-17659D01*
X20249Y-17671D01*
X20273Y-17671D01*
X20308Y-17659D01*
X20451Y-17517D01*
X20451Y-17671D01*
X20201Y-17826D02*
X20201Y-17850D01*
X20213Y-17874D01*
X20225Y-17886D01*
X20249Y-17898D01*
X20296Y-17909D01*
X20356Y-17909D01*
X20403Y-17898D01*
X20427Y-17886D01*
X20439Y-17874D01*
X20451Y-17850D01*
X20451Y-17826D01*
X20439Y-17802D01*
X20427Y-17790D01*
X20403Y-17778D01*
X20356Y-17767D01*
X20296Y-17767D01*
X20249Y-17778D01*
X20225Y-17790D01*
X20213Y-17802D01*
X20201Y-17826D01*
X20451Y-18148D02*
X20451Y-18005D01*
X20451Y-18076D02*
X20201Y-18076D01*
X20237Y-18052D01*
X20261Y-18028D01*
X20273Y-18005D01*
X20284Y-18362D02*
X20451Y-18362D01*
X20189Y-18302D02*
X20368Y-18243D01*
X20368Y-18398D01*
X20427Y-18826D02*
X20439Y-18814D01*
X20451Y-18778D01*
X20451Y-18755D01*
X20439Y-18719D01*
X20415Y-18695D01*
X20392Y-18683D01*
X20344Y-18671D01*
X20308Y-18671D01*
X20261Y-18683D01*
X20237Y-18695D01*
X20213Y-18719D01*
X20201Y-18755D01*
X20201Y-18778D01*
X20213Y-18814D01*
X20225Y-18826D01*
X20427Y-18933D02*
X20439Y-18945D01*
X20451Y-18933D01*
X20439Y-18921D01*
X20427Y-18933D01*
X20451Y-18933D01*
X20451Y-19362D02*
X20451Y-19243D01*
X20201Y-19243D01*
X20451Y-19481D02*
X20439Y-19457D01*
X20427Y-19445D01*
X20403Y-19433D01*
X20332Y-19433D01*
X20308Y-19445D01*
X20296Y-19457D01*
X20284Y-19481D01*
X20284Y-19517D01*
X20296Y-19540D01*
X20308Y-19552D01*
X20332Y-19564D01*
X20403Y-19564D01*
X20427Y-19552D01*
X20439Y-19540D01*
X20451Y-19517D01*
X20451Y-19481D01*
X20451Y-19671D02*
X20201Y-19671D01*
X20451Y-19778D02*
X20320Y-19778D01*
X20296Y-19767D01*
X20284Y-19743D01*
X20284Y-19707D01*
X20296Y-19683D01*
X20308Y-19671D01*
X20451Y-19898D02*
X20284Y-19898D01*
X20332Y-19898D02*
X20308Y-19909D01*
X20296Y-19921D01*
X20284Y-19945D01*
X20284Y-19969D01*
X24363Y-16122D02*
X24363Y-16265D01*
X24613Y-16193D02*
X24363Y-16193D01*
X24613Y-16348D02*
X24446Y-16348D01*
X24363Y-16348D02*
X24374Y-16336D01*
X24386Y-16348D01*
X24374Y-16360D01*
X24363Y-16348D01*
X24386Y-16348D01*
X24446Y-16467D02*
X24613Y-16467D01*
X24470Y-16467D02*
X24458Y-16479D01*
X24446Y-16503D01*
X24446Y-16539D01*
X24458Y-16562D01*
X24482Y-16574D01*
X24613Y-16574D01*
X24446Y-16669D02*
X24613Y-16729D01*
X24446Y-16789D02*
X24613Y-16729D01*
X24672Y-16705D01*
X24684Y-16693D01*
X24696Y-16669D01*
X24613Y-16884D02*
X24446Y-16884D01*
X24363Y-16884D02*
X24374Y-16872D01*
X24386Y-16884D01*
X24374Y-16896D01*
X24363Y-16884D01*
X24386Y-16884D01*
X24601Y-16991D02*
X24613Y-17015D01*
X24613Y-17062D01*
X24601Y-17086D01*
X24577Y-17098D01*
X24565Y-17098D01*
X24541Y-17086D01*
X24529Y-17062D01*
X24529Y-17027D01*
X24517Y-17003D01*
X24493Y-16991D01*
X24482Y-16991D01*
X24458Y-17003D01*
X24446Y-17027D01*
X24446Y-17062D01*
X24458Y-17086D01*
X24446Y-17169D02*
X24446Y-17265D01*
X24363Y-17205D02*
X24577Y-17205D01*
X24601Y-17217D01*
X24613Y-17241D01*
X24613Y-17265D01*
X24613Y-17539D02*
X24363Y-17539D01*
X24541Y-17622D01*
X24363Y-17705D01*
X24613Y-17705D01*
X24613Y-17824D02*
X24446Y-17824D01*
X24363Y-17824D02*
X24374Y-17812D01*
X24386Y-17824D01*
X24374Y-17836D01*
X24363Y-17824D01*
X24386Y-17824D01*
X24446Y-17943D02*
X24613Y-17943D01*
X24470Y-17943D02*
X24458Y-17955D01*
X24446Y-17979D01*
X24446Y-18015D01*
X24458Y-18039D01*
X24482Y-18050D01*
X24613Y-18050D01*
X24601Y-18265D02*
X24613Y-18241D01*
X24613Y-18193D01*
X24601Y-18169D01*
X24577Y-18158D01*
X24482Y-18158D01*
X24458Y-18169D01*
X24446Y-18193D01*
X24446Y-18241D01*
X24458Y-18265D01*
X24482Y-18277D01*
X24505Y-18277D01*
X24529Y-18158D01*
X24601Y-18491D02*
X24613Y-18467D01*
X24613Y-18419D01*
X24601Y-18396D01*
X24589Y-18384D01*
X24565Y-18372D01*
X24493Y-18372D01*
X24470Y-18384D01*
X24458Y-18396D01*
X24446Y-18419D01*
X24446Y-18467D01*
X24458Y-18491D01*
X24613Y-18598D02*
X24446Y-18598D01*
X24493Y-18598D02*
X24470Y-18610D01*
X24458Y-18622D01*
X24446Y-18646D01*
X24446Y-18669D01*
X24613Y-18860D02*
X24482Y-18860D01*
X24458Y-18848D01*
X24446Y-18824D01*
X24446Y-18777D01*
X24458Y-18753D01*
X24601Y-18860D02*
X24613Y-18836D01*
X24613Y-18777D01*
X24601Y-18753D01*
X24577Y-18741D01*
X24553Y-18741D01*
X24529Y-18753D01*
X24517Y-18777D01*
X24517Y-18836D01*
X24505Y-18860D01*
X24446Y-18943D02*
X24446Y-19039D01*
X24613Y-18979D02*
X24398Y-18979D01*
X24374Y-18991D01*
X24363Y-19015D01*
X24363Y-19039D01*
X24446Y-19086D02*
X24446Y-19181D01*
X24363Y-19122D02*
X24577Y-19122D01*
X24601Y-19134D01*
X24613Y-19158D01*
X24613Y-19181D01*
X24601Y-19443D02*
X24613Y-19479D01*
X24613Y-19539D01*
X24601Y-19562D01*
X24589Y-19574D01*
X24565Y-19586D01*
X24541Y-19586D01*
X24517Y-19574D01*
X24505Y-19562D01*
X24493Y-19539D01*
X24482Y-19491D01*
X24470Y-19467D01*
X24458Y-19455D01*
X24434Y-19443D01*
X24410Y-19443D01*
X24386Y-19455D01*
X24374Y-19467D01*
X24363Y-19491D01*
X24363Y-19550D01*
X24374Y-19586D01*
X24601Y-19789D02*
X24613Y-19765D01*
X24613Y-19717D01*
X24601Y-19693D01*
X24577Y-19681D01*
X24482Y-19681D01*
X24458Y-19693D01*
X24446Y-19717D01*
X24446Y-19765D01*
X24458Y-19789D01*
X24482Y-19800D01*
X24505Y-19800D01*
X24529Y-19681D01*
X24613Y-19908D02*
X24446Y-19908D01*
X24493Y-19908D02*
X24470Y-19919D01*
X24458Y-19931D01*
X24446Y-19955D01*
X24446Y-19979D01*
X24446Y-20039D02*
X24613Y-20098D01*
X24446Y-20158D01*
X24601Y-20348D02*
X24613Y-20324D01*
X24613Y-20277D01*
X24601Y-20253D01*
X24577Y-20241D01*
X24482Y-20241D01*
X24458Y-20253D01*
X24446Y-20277D01*
X24446Y-20324D01*
X24458Y-20348D01*
X24482Y-20360D01*
X24505Y-20360D01*
X24529Y-20241D01*
X24613Y-20467D02*
X24446Y-20467D01*
X24493Y-20467D02*
X24470Y-20479D01*
X24458Y-20491D01*
X24446Y-20515D01*
X24446Y-20539D01*
G54D12*
X24803Y-22244D02*
X24803Y-22047D01*
X20078Y-22244D02*
X24803Y-22244D01*
X20078Y-22047D02*
X20078Y-22244D01*
X20078Y-20472D02*
X20078Y-22047D01*
X24803Y-20472D02*
X24803Y-22047D01*
X20078Y-20472D02*
X20078Y-15748D01*
X24803Y-15748D02*
X24803Y-20472D01*
X20078Y-15748D02*
X24803Y-15748D01*
M02*
